<?xml version="1.0" standalone="no"?><svg xmlns="http://www.w3.org/2000/svg" viewBox="0 0 1440 320"><path fill="#df744a" fill-opacity="1" d="M0,256L26.7,245.3C53.3,235,107,213,160,218.7C213.3,224,267,256,320,256C373.3,256,427,224,480,213.3C533.3,203,587,213,640,218.7C693.3,224,747,224,800,202.7C853.3,181,907,139,960,144C1013.3,149,1067,203,1120,229.3C1173.3,256,1227,256,1280,245.3C1333.3,235,1387,213,1413,202.7L1440,192L1440,0L1413.3,0C1386.7,0,1333,0,1280,0C1226.7,0,1173,0,1120,0C1066.7,0,1013,0,960,0C906.7,0,853,0,800,0C746.7,0,693,0,640,0C586.7,0,533,0,480,0C426.7,0,373,0,320,0C266.7,0,213,0,160,0C106.7,0,53,0,27,0L0,0Z"></path></svg>